UNKNOWN
nRows=4
nColumns=264

# SIMM Motion File Header:
name UNKNOWN
datacolumns 264
datarows 4
otherdata 1
range 0.60833000 0.63333000
endheader
time	pelvis_tx	pelvis_ty	pelvis_tz	pelvis_list	pelvis_rotation	pelvis_tilt	hip_flexion_r	hip_adduction_r	hip_rotation_r	knee_angle_r	ankle_angle_r	hip_flexion_l	hip_adduction_l	hip_rotation_l	knee_angle_l	ankle_angle_l	lumbar_extension	lumbar_bending	lumbar_rotation	subtalar_angle_r	mtp_angle_r	subtalar_angle_l	mtp_angle_l	midhip_tx	midhip_ty	midhip_tz	hip_r_tx	hip_r_ty	hip_r_tz	hip_l_tx	hip_l_ty	hip_l_tz	knee_r_tx	knee_r_ty	knee_r_tz	knee_l_tx	knee_l_ty	knee_l_tz	ankle_r_tx	ankle_r_ty	ankle_r_tz	ankle_l_tx	ankle_l_ty	ankle_l_tz	midasis_tx	midasis_ty	midasis_tz	asis_r_tx	asis_r_ty	asis_r_tz	asis_l_tx	asis_l_ty	asis_l_tz	psis_r_tx	psis_r_ty	psis_r_tz	psis_l_tx	psis_l_ty	psis_l_tz	epicondLat_r_tx	epicondLat_r_ty	epicondLat_r_tz	epicondLat_l_tx	epicondLat_l_ty	epicondLat_l_tz	epicondMed_r_tx	epicondMed_r_ty	epicondMed_r_tz	epicondMed_l_tx	epicondMed_l_ty	epicondMed_l_tz	malleolusLat_r_tx	malleolusLat_r_ty	malleolusLat_r_tz	malleolusLat_l_tx	malleolusLat_l_ty	malleolusLat_l_tz	malleolusMedv_r_tx	malleolusMedv_r_ty	malleolusMedv_r_tz	malleolusMedv_l_tx	malleolusMedv_l_ty	malleolusMedv_l_tz	neck_tx	neck_ty	neck_tz	subclavicle_r_tx	subclavicle_r_ty	subclavicle_r_tz	subclavicle_l_tx	subclavicle_l_ty	subclavicle_l_tz	sternalnotch_tx	sternalnotch_ty	sternalnotch_tz	xyphoidprocess_tx	xyphoidprocess_ty	xyphoidprocess_tz	thighwand_r_tx	thighwand_r_ty	thighwand_r_tz	thighwand_l_tx	thighwand_l_ty	thighwand_l_tz	upperleg1_r_tx	upperleg1_r_ty	upperleg1_r_tz	upperleg1_l_tx	upperleg1_l_ty	upperleg1_l_tz	upperleg2_r_tx	upperleg2_r_ty	upperleg2_r_tz	upperleg2_l_tx	upperleg2_l_ty	upperleg2_l_tz	shankwand_r_tx	shankwand_r_ty	shankwand_r_tz	shankwand_l_tx	shankwand_l_ty	shankwand_l_tz	lowerleg1_r_tx	lowerleg1_r_ty	lowerleg1_r_tz	lowerleg1_l_tx	lowerleg1_l_ty	lowerleg1_l_tz	toe_r_tx	toe_r_ty	toe_r_tz	toe_l_tx	toe_l_ty	toe_l_tz	ground_force_vx	ground_force_vy	ground_force_vz	ground_force_px	ground_force_py	ground_force_pz	ground_force_vx	ground_force_vy	ground_force_vz	ground_force_px	ground_force_py	ground_force_pz	ground_torque_x	ground_torque_y	ground_torque_z	ground_torque_x	ground_torque_y	ground_torque_z	ground_marker_px	ground_marker_py	ground_marker_pz	ground_marker_px	ground_marker_py	ground_marker_pz	ground_marker_px	ground_marker_py	ground_marker_pz	ground_marker_px	ground_marker_py	ground_marker_pz	ground_marker_px	ground_marker_py	ground_marker_pz	ground_marker_px	ground_marker_py	ground_marker_pz	ground_marker_px	ground_marker_py	ground_marker_pz	ground_marker_px	ground_marker_py	ground_marker_pz	ground_marker_px	ground_marker_py	ground_marker_pz	ground_marker_px	ground_marker_py	ground_marker_pz	ground_marker_px	ground_marker_py	ground_marker_pz	ground_marker_px	ground_marker_py	ground_marker_pz	ground_marker_px	ground_marker_py	ground_marker_pz	ground_marker_px	ground_marker_py	ground_marker_pz	ground_marker_px	ground_marker_py	ground_marker_pz	ground_marker_px	ground_marker_py	ground_marker_pz	ground_marker_px	ground_marker_py	ground_marker_pz	ground_marker_px	ground_marker_py	ground_marker_pz	ground_marker_px	ground_marker_py	ground_marker_pz	ground_marker_px	ground_marker_py	ground_marker_pz	ground_marker_px	ground_marker_py	ground_marker_pz	ground_marker_px	ground_marker_py	ground_marker_pz	ground_marker_px	ground_marker_py	ground_marker_pz	ground_marker_px	ground_marker_py	ground_marker_pz	ground_marker_px	ground_marker_py	ground_marker_pz	ground_marker_px	ground_marker_py	ground_marker_pz	ground_marker_px	ground_marker_py	ground_marker_pz	ground_marker_px	ground_marker_py	ground_marker_pz	ground_marker_px	ground_marker_py	ground_marker_pz	ground_marker_px	ground_marker_py	ground_marker_pz	ground_marker_px	ground_marker_py	ground_marker_pz	ground_marker_px	ground_marker_py	ground_marker_pz	ground_marker_px	ground_marker_py	ground_marker_pz	ground_marker_px	ground_marker_py	ground_marker_pz	ground_marker_px	ground_marker_py	ground_marker_pz	ground_marker_px	ground_marker_py	ground_marker_pz	ground_marker_px	ground_marker_py	ground_marker_pz	
      0.60833000	      0.45895353	      0.89356765	     -0.25951825	      2.17468327	     -3.09193906	     -0.81748154	    -13.16350192	      0.78039191	     14.59342240	    -20.75732433	     16.88268186	     22.55007758	      3.70417923	      9.39803048	     -9.40281053	     -6.48733458	     -5.25405016	      0.61289578	      4.30717820	      0.00000000	      0.00000000	      0.00000000	      0.00000000	      0.40940600	      0.85741100	     -0.25460000	      0.39363700	      0.85611900	     -0.16595700	      0.42517500	      0.85870300	     -0.34324200	      0.31101600	      0.44755300	     -0.20078100	      0.54712200	      0.45496900	     -0.31409900	      0.07321500	      0.10743700	     -0.22252800	      0.63633600	      0.07293700	     -0.30154000	      0.47864900	      0.93122600	     -0.25131400	      0.47266500	      0.92092700	     -0.13078000	      0.48463200	      0.94152600	     -0.37184800	      0.29115300	      0.97177700	     -0.22576300	      0.29943700	      0.97375700	     -0.31109400	      0.30874400	      0.44166700	     -0.14129000	      0.56315700	      0.46062500	     -0.37310700	      0.28860500	      0.45098100	     -0.25261700	      0.53302600	      0.43800100	     -0.26291600	      0.06262800	      0.11183700	     -0.18420700	      0.62102800	      0.06835800	     -0.33711700	      0.08558300	      0.11748200	     -0.25114300	      0.63973400	      0.08793700	     -0.27595100	      0.30405800	      1.40166800	     -0.23963800	      0.43447500	      1.31956000	     -0.19872500	      0.42982500	      1.32347300	     -0.30663600	      0.41615100	      1.33022700	     -0.24869300	      0.48965900	      1.16363500	     -0.26972800	      0.37789000	      0.52992500	     -0.06391200	      0.66038600	      0.58607800	     -0.30973000	      0.39926100	      0.59672400	     -0.12454600	      0.58138100	      0.61158800	     -0.35761400	      0.38193500	      0.51328000	     -0.15394000	      0.58731900	      0.52405800	     -0.35279700	      0.15327000	      0.20745400	     -0.09127400	      0.62046300	      0.20788800	     -0.42440700	      0.12505600	      0.18932700	     -0.16597500	      0.61085200	      0.16911800	     -0.35430900	      0.17149600	      0.04153400	     -0.19877700	      0.75761500	      0.04862500	     -0.32232400	    121.87026410	    604.16602078	     -6.41102707	      0.18424115	      0.00000000	     -0.21142856	    -24.04060380	    231.37653357	    -10.01606213	      0.62778802	      0.00000000	     -0.28885693	      0.00000000	      2.46799731	      0.00000000	      0.00000000	      0.12837012	      0.00000000	      0.40940559	      0.85741091	     -0.25459969	      0.39363655	      0.85611868	     -0.16595721	      0.42517465	      0.85870314	     -0.34324220	      0.31101629	      0.44755316	     -0.20078063	      0.54712206	      0.45496917	     -0.31409851	      0.07321490	      0.10743676	     -0.22252826	      0.63633609	      0.07293700	     -0.30153987	      0.47864872	      0.93122649	     -0.25131372	      0.47266525	      0.92092746	     -0.13077964	      0.48463219	      0.94152552	     -0.37184781	      0.29115307	      0.97177690	     -0.22576277	      0.29943660	      0.97375739	     -0.31109396	      0.30874434	      0.44166663	     -0.14128958	      0.56315720	      0.46062502	     -0.37310743	      0.28860468	      0.45098093	     -0.25261664	      0.53302616	      0.43800113	     -0.26291573	      0.06262813	      0.11183744	     -0.18420655	      0.62102818	      0.06835759	     -0.33711651	      0.08558278	      0.11748220	     -0.25114259	      0.63973373	      0.08793679	     -0.27595064	      0.30405796	      1.40166783	     -0.23963828	      0.43447489	      1.31956005	     -0.19872507	      0.42982495	      1.32347274	     -0.30663621	      0.41615120	      1.33022678	     -0.24869338	      0.48965892	      1.16363549	     -0.26972839	      0.37789047	      0.52992541	     -0.06391224	      0.66038609	      0.58607799	     -0.30973017	      0.39926142	      0.59672427	     -0.12454650	      0.58138067	      0.61158848	     -0.35761359	      0.38193536	      0.51328027	     -0.15393955	      0.58731920	      0.52405787	     -0.35279679	      0.15326981	      0.20745428	     -0.09127353	      0.62046272	      0.20788842	     -0.42440698	      0.12505551	      0.18932654	     -0.16597542	      0.61085218	      0.16911781	     -0.35430935	      0.17149608	      0.04153424	     -0.19877681	      0.75761515	      0.04862498	     -0.32232368
      0.61667000	      0.46983795	      0.89449730	     -0.26042088	      2.54480662	     -2.79357515	     -0.89141098	    -12.97053498	      0.48392970	     14.04762714	    -22.26937058	     15.20510421	     22.35336959	      4.32926482	      9.57301279	    -10.05520656	     -6.44714471	     -4.91897542	      0.04266889	      4.26658530	      0.00000000	      0.00000000	      0.00000000	      0.00000000	      0.42006800	      0.85879400	     -0.25605400	      0.40478100	      0.85707300	     -0.16733500	      0.43535500	      0.86051400	     -0.34477400	      0.32346900	      0.44688000	     -0.20055600	      0.55643000	      0.45653300	     -0.31450500	      0.07759300	      0.11268800	     -0.22158900	      0.63812500	      0.07244500	     -0.30123000	      0.48950300	      0.93217400	     -0.25254600	      0.48396700	      0.92127600	     -0.13218600	      0.49504000	      0.94307200	     -0.37290600	      0.30187900	      0.97308100	     -0.22596600	      0.31009000	      0.97523300	     -0.31146400	      0.32030000	      0.44187300	     -0.14116100	      0.57158500	      0.46158000	     -0.37326500	      0.30073400	      0.44972800	     -0.25081700	      0.54052600	      0.43971800	     -0.26365100	      0.06683100	      0.11760500	     -0.18337900	      0.62312500	      0.06813500	     -0.33697100	      0.09019400	      0.12248400	     -0.25012300	      0.64275200	      0.08698300	     -0.27567800	      0.31311700	      1.40252200	     -0.24097300	      0.44421900	      1.32062200	     -0.20035100	      0.43923000	      1.32446400	     -0.30798100	      0.42551700	      1.33119700	     -0.25010800	      0.49964600	      1.16482500	     -0.27132700	      0.38967500	      0.53011000	     -0.06365100	      0.66933800	      0.58728900	     -0.30927600	      0.41166300	      0.59695500	     -0.12440500	      0.59124800	      0.61324300	     -0.35767600	      0.39434300	      0.51289100	     -0.15315900	      0.59672600	      0.52520000	     -0.35266600	      0.15917500	      0.21226800	     -0.09042300	      0.62578200	      0.20749600	     -0.42444200	      0.13089700	      0.19385700	     -0.16540800	      0.61534000	      0.16853500	     -0.35421800	      0.17279900	      0.04156600	     -0.19868900	      0.76004800	      0.04615700	     -0.32206200	    123.05532940	    553.40040052	     -4.91487874	      0.18430753	      0.00000000	     -0.21157051	    -35.04444478	    255.31819742	     -8.81032423	      0.63549011	      0.00000000	     -0.29076569	      0.00000000	      2.13651562	      0.00000000	      0.00000000	      0.45528503	      0.00000000	      0.42006767	      0.85879362	     -0.25605431	      0.40478051	      0.85707325	     -0.16733472	      0.43535486	      0.86051393	     -0.34477389	      0.32346871	      0.44687998	     -0.20055568	      0.55643046	      0.45653293	     -0.31450537	      0.07759321	      0.11268786	     -0.22158875	      0.63812506	      0.07244472	     -0.30122983	      0.48950326	      0.93217397	     -0.25254631	      0.48396680	      0.92127627	     -0.13218623	      0.49503973	      0.94307160	     -0.37290642	      0.30187908	      0.97308081	     -0.22596562	      0.31008989	      0.97523344	     -0.31146443	      0.32029963	      0.44187286	     -0.14116058	      0.57158518	      0.46157968	     -0.37326452	      0.30073407	      0.44972792	     -0.25081733	      0.54052603	      0.43971819	     -0.26365098	      0.06683071	      0.11760455	     -0.18337886	      0.62312484	      0.06813546	     -0.33697087	      0.09019436	      0.12248427	     -0.25012296	      0.64275169	      0.08698309	     -0.27567774	      0.31311744	      1.40252185	     -0.24097323	      0.44421875	      1.32062173	     -0.20035072	      0.43923035	      1.32446420	     -0.30798057	      0.42551652	      1.33119655	     -0.25010803	      0.49964646	      1.16482544	     -0.27132711	      0.38967484	      0.53010994	     -0.06365122	      0.66933841	      0.58728874	     -0.30927557	      0.41166255	      0.59695488	     -0.12440539	      0.59124827	      0.61324310	     -0.35767618	      0.39434314	      0.51289052	     -0.15315875	      0.59672642	      0.52520019	     -0.35266647	      0.15917528	      0.21226789	     -0.09042319	      0.62578189	      0.20749627	     -0.42444229	      0.13089675	      0.19385746	     -0.16540840	      0.61533982	      0.16853541	     -0.35421783	      0.17279892	      0.04156573	     -0.19868939	      0.76004797	      0.04615663	     -0.32206184
      0.62500000	      0.48080522	      0.89553621	     -0.26124358	      2.95117780	     -2.48746947	     -0.95387859	    -12.62233921	      0.17125965	     13.46139184	    -24.06060896	     13.28524470	     22.07356046	      4.96491585	      9.71716082	    -10.63227870	     -6.14241221	     -4.62507625	     -0.57515719	      4.20022977	      0.00000000	      0.00000000	      0.00000000	      0.00000000	      0.43094000	      0.86021200	     -0.25710300	      0.41602100	      0.85805200	     -0.16833000	      0.44585800	      0.86237200	     -0.34587600	      0.33744500	      0.44612700	     -0.20067900	      0.56502100	      0.45804200	     -0.31479500	      0.08284100	      0.11823200	     -0.22051200	      0.63960500	      0.07201200	     -0.30111300	      0.50045300	      0.93336300	     -0.25384300	      0.49538000	      0.92186200	     -0.13368600	      0.50552600	      0.94486500	     -0.37400000	      0.31274800	      0.97454600	     -0.22620200	      0.32084000	      0.97686300	     -0.31179000	      0.33257200	      0.44217500	     -0.14079900	      0.57978100	      0.46244300	     -0.37359500	      0.31585700	      0.44818000	     -0.25090200	      0.54754200	      0.44199800	     -0.26388500	      0.07186000	      0.12370600	     -0.18244100	      0.62482100	      0.06794700	     -0.33697300	      0.09569500	      0.12761400	     -0.24887100	      0.64543600	      0.08617700	     -0.27581700	      0.32228600	      1.40345700	     -0.24220600	      0.45470800	      1.32222800	     -0.20167600	      0.44865400	      1.32544200	     -0.30951600	      0.43490300	      1.33235800	     -0.25147100	      0.51032200	      1.16634800	     -0.27243100	      0.40217400	      0.53049200	     -0.06319100	      0.67806100	      0.58861500	     -0.30888800	      0.42452500	      0.59712500	     -0.12429600	      0.60071400	      0.61458000	     -0.35828100	      0.40768000	      0.51242000	     -0.15242600	      0.60554900	      0.52654900	     -0.35263600	      0.16576100	      0.21747400	     -0.08950000	      0.63047500	      0.20698700	     -0.42461100	      0.13724100	      0.19904400	     -0.16429700	      0.61891200	      0.16774200	     -0.35432400	      0.17429700	      0.04150300	     -0.19871000	      0.76218800	      0.04433200	     -0.32192300	    121.44185610	    495.55210167	     -3.45618205	      0.18418509	      0.00000000	     -0.21167749	    -45.20243101	    281.65452285	     -7.31063989	      0.64238831	      0.00000000	     -0.29249710	      0.00000000	      1.80448413	      0.00000000	      0.00000000	      0.77104272	      0.00000000	      0.43093970	      0.86021173	     -0.25710297	      0.41602099	      0.85805178	     -0.16833030	      0.44585842	      0.86237162	     -0.34587565	      0.33744523	      0.44612676	     -0.20067886	      0.56502080	      0.45804235	     -0.31479517	      0.08284103	      0.11823208	     -0.22051238	      0.63960487	      0.07201158	     -0.30111301	      0.50045305	      0.93336350	     -0.25384331	      0.49537989	      0.92186242	     -0.13368616	      0.50552619	      0.94486457	     -0.37400049	      0.31274849	      0.97454560	     -0.22620240	      0.32084012	      0.97686255	     -0.31178978	      0.33257186	      0.44217524	     -0.14079936	      0.57978088	      0.46244314	     -0.37359461	      0.31585714	      0.44817978	     -0.25090230	      0.54754204	      0.44199842	     -0.26388478	      0.07185991	      0.12370610	     -0.18244073	      0.62482077	      0.06794655	     -0.33697253	      0.09569493	      0.12761445	     -0.24887109	      0.64543599	      0.08617742	     -0.27581653	      0.32228628	      1.40345716	     -0.24220577	      0.45470783	      1.32222807	     -0.20167595	      0.44865447	      1.32544231	     -0.30951622	      0.43490306	      1.33235776	     -0.25147071	      0.51032227	      1.16634822	     -0.27243066	      0.40217352	      0.53049171	     -0.06319121	      0.67806131	      0.58861506	     -0.30888844	      0.42452550	      0.59712464	     -0.12429617	      0.60071385	      0.61458021	     -0.35828128	      0.40768048	      0.51241994	     -0.15242583	      0.60554916	      0.52654940	     -0.35263556	      0.16576093	      0.21747404	     -0.08950031	      0.63047469	      0.20698692	     -0.42461103	      0.13724057	      0.19904380	     -0.16429734	      0.61891174	      0.16774181	     -0.35432431	      0.17429695	      0.04150313	     -0.19870964	      0.76218832	      0.04433231	     -0.32192311
      0.63333000	      0.49172536	      0.89668038	     -0.26210984	      3.46991833	     -2.22956078	     -0.96841750	    -12.08792330	     -0.29335200	     12.73828828	    -26.18698295	     11.12454338	     21.68460739	      5.69261321	      9.82315277	    -11.17418262	     -5.65441876	     -4.35942476	     -1.31463605	      4.19168012	      0.00000000	      0.00000000	      0.00000000	      0.00000000	      0.44185700	      0.86152600	     -0.25836800	      0.42728200	      0.85895500	     -0.16954900	      0.45643200	      0.86409700	     -0.34718700	      0.35393900	      0.44417700	     -0.20068800	      0.57417000	      0.45935900	     -0.31536600	      0.08926800	      0.12392300	     -0.21930100	      0.64076800	      0.07166000	     -0.30121700	      0.51147400	      0.93480700	     -0.25519200	      0.50692400	      0.92272500	     -0.13523500	      0.51602400	      0.94688800	     -0.37514900	      0.32375700	      0.97611100	     -0.22648600	      0.33163100	      0.97857200	     -0.31210300	      0.34564000	      0.44250400	     -0.14016700	      0.58772400	      0.46317000	     -0.37409500	      0.33323900	      0.44523500	     -0.25077600	      0.55612400	      0.44337500	     -0.26446500	      0.07796700	      0.13003700	     -0.18142100	      0.62607700	      0.06781800	     -0.33713900	      0.10264100	      0.13248500	     -0.24720600	      0.64653100	      0.08581400	     -0.27601200	      0.33168000	      1.40447600	     -0.24341900	      0.46429700	      1.32349800	     -0.20285200	      0.45789400	      1.32655700	     -0.31114800	      0.44439500	      1.33372300	     -0.25275800	      0.51988900	      1.16759100	     -0.27377300	      0.41531700	      0.53106700	     -0.06253500	      0.68660000	      0.58983800	     -0.30868700	      0.43694900	      0.59733300	     -0.12399400	      0.60922400	      0.61593300	     -0.35874300	      0.42232200	      0.51234200	     -0.15153400	      0.61434300	      0.52814500	     -0.35297400	      0.17306100	      0.22303500	     -0.08846200	      0.63442900	      0.20643800	     -0.42491400	      0.14460800	      0.20479300	     -0.16314400	      0.62137900	      0.16732100	     -0.35453600	      0.17605500	      0.04136600	     -0.19880100	      0.76391900	      0.04295800	     -0.32198100	    115.94126338	    430.52890693	     -2.26570956	      0.18389487	      0.00000000	     -0.21172636	    -52.21348535	    308.49058921	     -4.72682982	      0.64822925	      0.00000000	     -0.29408939	      0.00000000	      1.45937659	      0.00000000	      0.00000000	      0.94428693	      0.00000000	      0.44185710	      0.86152601	     -0.25836769	      0.42728215	      0.85895544	     -0.16954884	      0.45643201	      0.86409658	     -0.34718654	      0.35393918	      0.44417682	     -0.20068796	      0.57417005	      0.45935920	     -0.31536591	      0.08926789	      0.12392262	     -0.21930096	      0.64076841	      0.07165968	     -0.30121708	      0.51147354	      0.93480682	     -0.25519189	      0.50692362	      0.92272526	     -0.13523526	      0.51602352	      0.94688833	     -0.37514850	      0.32375699	      0.97611088	     -0.22648627	      0.33163103	      0.97857237	     -0.31210318	      0.34563977	      0.44250444	     -0.14016739	      0.58772391	      0.46316960	     -0.37409487	      0.33323935	      0.44523469	     -0.25077581	      0.55612361	      0.44337475	     -0.26446548	      0.07796708	      0.13003667	     -0.18142073	      0.62607747	      0.06781811	     -0.33713943	      0.10264109	      0.13248467	     -0.24720579	      0.64653051	      0.08581408	     -0.27601239	      0.33168048	      1.40447640	     -0.24341927	      0.46429658	      1.32349777	     -0.20285153	      0.45789391	      1.32655704	     -0.31114775	      0.44439501	      1.33372319	     -0.25275797	      0.51988930	      1.16759109	     -0.27377301	      0.41531673	      0.53106713	     -0.06253501	      0.68659997	      0.58983791	     -0.30868685	      0.43694940	      0.59733295	     -0.12399352	      0.60922408	      0.61593258	     -0.35874322	      0.42232171	      0.51234245	     -0.15153433	      0.61434346	      0.52814525	     -0.35297409	      0.17306112	      0.22303483	     -0.08846184	      0.63442934	      0.20643774	     -0.42491427	      0.14460829	      0.20479314	     -0.16314368	      0.62137938	      0.16732118	     -0.35453561	      0.17605513	      0.04136613	     -0.19880088	      0.76391870	      0.04295837	     -0.32198146
